# xmcd
#
# Track frame offsets:
#	150
#	9320
#	19522
#	29048
#	45071
#	56773
#	63766
#	76312
#	84296
#	96377
#	107049
#	120437
#	130158
#	142283
#	155307
#	164974
#	178609
#	193346
#	200942
#	209431
#	221225
#	231898
#	245356
#	260814
#	274640
#	282490
#	298349
#	311259
#	319488
#	330777
#
# Disc length: 4575 seconds
#
# Revision: 0
# Processed by: cddbd v1.5.2PL0 Copyright (c) Steve Scherf et al.
# Submitted via: EasyCDDAExtractor 2010.4.0.0
#
DISCID=c711dd1e
DTITLE=Doc and Merle Watson - Columbus Stockade Blues: The Best Of The 70's
DYEAR=1900
DGENRE=
TTITLE0=Bonaparte's Retreat
TTITLE1=Milk Cow Blues
TTITLE2=Bottle Of Wine
TTITLE3=Match Box Blues
TTITLE4=If I Needed You
TTITLE5=Rain Crow Bill
TTITLE6=Walk On Boy
TTITLE7=Doc's Rag
TTITLE8=I'm Going Fishing
TTITLE9=Poor Boy Blues
TTITLE10=The Train That Carried My Girl From Town
TTITLE11=Little Beggar Man/Old Joe Clark
TTITLE12=Shady Grove
TTITLE13=Wake Up, Little Maggie
TTITLE14=Keep On The Sunny Side 
TTITLE15=Make Me A Pallet
TTITLE16=Columbus Stockade
TTITLE17=Double File And Salt Creek
TTITLE18=Rambling Hobo
TTITLE19=Darlin' Cory
TTITLE20=Natural Born Gamblin' Man
TTITLE21=Minglewood Blues
TTITLE22=Stone Wall (Around My Heart)
TTITLE23=I Ain't Going Honky-Tonkin' Anymore
TTITLE24=Florida Blues
TTITLE25=Dig A Little Deeper In The Well
TTITLE26=Wild Bill Jones
TTITLE27=Big Sandy/Leather Britches
TTITLE28=Let The Cocaine Be
TTITLE29=All I Have To Do Is Dream
EXTD=
EXTT0=
EXTT1=
EXTT2=
EXTT3=
EXTT4=
EXTT5=
EXTT6=
EXTT7=
EXTT8=
EXTT9=
EXTT10=
EXTT11=
EXTT12=
EXTT13=
EXTT14=
EXTT15=
EXTT16=
EXTT17=
EXTT18=
EXTT19=
EXTT20=
EXTT21=
EXTT22=
EXTT23=
EXTT24=
EXTT25=
EXTT26=
EXTT27=
EXTT28=
EXTT29=
PLAYORDER=
